<?xml version="1.0" encoding="UTF-8"?>
<!DOCTYPE svg PUBLIC "-//W3C//DTD SVG 1.1//EN" "http://www.w3.org/Graphics/SVG/1.1/DTD/svg11.dtd">
<!-- Creator: CorelDRAW -->
<svg xmlns="http://www.w3.org/2000/svg" xml:space="preserve" width="60px" height="60px" version="1.1" style="shape-rendering:geometricPrecision; text-rendering:geometricPrecision; image-rendering:optimizeQuality; fill-rule:evenodd; clip-rule:evenodd"
viewBox="0 0 15.56 15.56"
 xmlns:xlink="http://www.w3.org/1999/xlink"
 xmlns:xodm="http://www.corel.com/coreldraw/odm/2003">
 <defs>
  <style type="text/css">
   <![CDATA[
    .fil0 {fill:none}
    .fil1 {fill:white;fill-rule:nonzero}
   ]]>
  </style>
 </defs>
 <g id="Capa_x0020_1">
  <metadata id="CorelCorpID_0Corel-Layer"/>
  <rect class="fil0" width="15.56" height="15.56"/>
  <path class="fil1" d="M12.87 6.73c0,0 0,0 -0.01,0 -0.99,0 -1.97,-0.31 -2.78,-0.89l0 4.06c0,2.05 -1.66,3.7 -3.7,3.7 -2.04,0 -3.7,-1.65 -3.7,-3.7 0,-2.04 1.66,-3.69 3.7,-3.69 0.17,0 0.34,0.01 0.51,0.03l0 2.05c-0.16,-0.06 -0.33,-0.08 -0.51,-0.08 -0.93,0 -1.69,0.76 -1.69,1.69 0,0.94 0.76,1.7 1.69,1.7 0.94,0 1.7,-0.76 1.7,-1.7l0 -7.94 2 0c0,0 0,0.01 0,0.02 0,0.16 0.02,0.32 0.04,0.48l0 0c0.15,0.75 0.59,1.41 1.23,1.83 0.45,0.29 0.98,0.45 1.52,0.45 0,0 0,0 0,0l0 1.99z"/>
 </g>
</svg>
