<?xml version="1.0" encoding="UTF-8"?>
<!DOCTYPE svg PUBLIC "-//W3C//DTD SVG 1.1//EN" "http://www.w3.org/Graphics/SVG/1.1/DTD/svg11.dtd">
<svg xmlns="http://www.w3.org/2000/svg" version="1.1" width="428px" height="194px" style="shape-rendering:geometricPrecision; text-rendering:geometricPrecision; image-rendering:optimizeQuality; fill-rule:evenodd; clip-rule:evenodd" xmlns:xlink="http://www.w3.org/1999/xlink">
<g><path style="opacity:1" fill="#199ad7" d="M 206.5,7.5 C 210.182,7.3347 213.848,7.50137 217.5,8C 218.337,9.01127 218.67,10.1779 218.5,11.5C 220.199,11.3398 221.866,11.5065 223.5,12C 224.136,14.7745 225.636,16.9412 228,18.5C 228.667,21.8333 228.667,25.1667 228,28.5C 226.989,29.3366 225.822,29.67 224.5,29.5C 224.5,31.5 224.5,33.5 224.5,35.5C 222.5,35.5 220.5,35.5 218.5,35.5C 218.5,36.5 218.5,37.5 218.5,38.5C 214.167,38.5 209.833,38.5 205.5,38.5C 205.5,37.5 205.5,36.5 205.5,35.5C 200.5,36.5 198.5,34.5 199.5,29.5C 198.178,29.67 197.011,29.3366 196,28.5C 195.501,24.8484 195.335,21.1817 195.5,17.5C 196.822,17.67 197.989,17.3366 199,16.5C 199.003,12.1178 201.169,10.4511 205.5,11.5C 205.433,10.0413 205.766,8.70792 206.5,7.5 Z M 210.5,18.5 C 216.196,18.6496 217.863,21.3163 215.5,26.5C 208.97,29.2432 206.47,27.2432 208,20.5C 208.995,19.9341 209.828,19.2674 210.5,18.5 Z"/></g>
<g><path style="opacity:1" fill="#0c9cdd" d="M 195.5,41.5 C 209.819,40.7494 221.985,45.4161 232,55.5C 233,57.5 234,59.5 235,61.5C 235.167,78.1922 235.834,94.8589 237,111.5C 238.122,113.624 239.622,115.457 241.5,117C 245.5,119 249.5,121 253.5,123C 242.783,123.875 232.116,123.541 221.5,122C 212.806,120.404 205.306,116.57 199,110.5C 196.854,107.874 195.521,104.874 195,101.5C 194.18,81.4269 194.346,61.4269 195.5,41.5 Z"/></g>
<g><path style="opacity:1" fill="#2996c9" d="M 28.5,142.5 C 32.1671,145.189 34.1671,148.855 34.5,153.5C 34.8016,159.277 34.4683,165.111 33.5,171C 33.5818,174.235 34.0818,177.402 35,180.5C 36.2773,182.731 38.1106,184.398 40.5,185.5C 34.0076,186.931 27.6743,186.431 21.5,184C 16.2507,180.67 13.7507,175.837 14,169.5C 13.3333,159.167 13.3333,148.833 14,138.5C 15.3988,137.773 16.8988,137.273 18.5,137C 11.2827,130.358 12.2827,125.191 21.5,121.5C 23.323,122.747 25.323,123.414 27.5,123.5C 28.129,125.465 28.7957,127.465 29.5,129.5C 28.7957,131.535 28.129,133.535 27.5,135.5C 24.9514,136.509 22.2848,137.342 19.5,138C 22.8716,139.019 25.8716,140.519 28.5,142.5 Z M 19.5,128.5 C 20.675,128.281 21.675,128.614 22.5,129.5C 20.9483,130.798 19.9483,130.465 19.5,128.5 Z"/></g>
<g><path style="opacity:1" fill="#1499d7" d="M 236.5,136.5 C 256.213,136.179 275.88,136.512 295.5,137.5C 296.192,138.025 296.692,138.692 297,139.5C 297.667,154.5 297.667,169.5 297,184.5C 293.738,187.077 290.405,187.077 287,184.5C 286.5,171.838 286.333,159.171 286.5,146.5C 272.167,146.5 257.833,146.5 243.5,146.5C 243.667,159.171 243.5,171.838 243,184.5C 240.582,186.68 237.916,187.013 235,185.5C 233.367,170.593 233.033,155.593 234,140.5C 234.48,138.867 235.313,137.534 236.5,136.5 Z"/></g>
<g><path style="opacity:1" fill="#039de1" d="M 28.5,142.5 C 28.3367,144.857 28.5034,147.19 29,149.5C 29.3333,148.833 29.6667,148.167 30,147.5C 30.4186,148.672 31.0853,149.672 32,150.5C 32.3333,159.833 32.6667,169.167 33,178.5C 33.3095,179.766 33.8095,180.933 34.5,182C 34.5544,183.351 34.0544,184.518 33,185.5C 31.1026,185.104 29.6026,184.104 28.5,182.5C 26.4841,183.706 24.4841,183.706 22.5,182.5C 19.7875,179.907 17.7875,176.907 16.5,173.5C 15.3342,162.515 15.1676,151.515 16,140.5C 16.3333,139.833 16.6667,139.167 17,138.5C 18.9874,139.218 20.8208,140.218 22.5,141.5C 24.396,142.466 26.396,142.799 28.5,142.5 Z"/></g>
<g><path style="opacity:0.98" fill="#3f96b7" d="M 157.5,146.5 C 159.39,146.297 160.89,146.963 162,148.5C 166.194,155.997 166.527,163.663 163,171.5C 161.411,175.822 159.244,176.322 156.5,173C 163.03,164.939 163.03,156.939 156.5,149C 157.252,148.329 157.586,147.496 157.5,146.5 Z"/></g>
<g><path style="opacity:1" fill="#1899d4" d="M 51.5,136.5 C 71.213,136.179 90.8796,136.512 110.5,137.5C 111.192,138.025 111.692,138.692 112,139.5C 112.667,154.5 112.667,169.5 112,184.5C 107.882,187.592 104.549,186.925 102,182.5C 101.582,170.546 101.416,158.713 101.5,147C 87.1667,146.333 72.8333,146.333 58.5,147C 57.3577,158.981 57.1911,171.148 58,183.5C 56.3342,186.379 53.8342,187.212 50.5,186C 49.8406,177.909 49.5073,169.742 49.5,161.5C 49.5305,152.935 50.1972,144.601 51.5,136.5 Z"/></g>
<g><path style="opacity:1" fill="#1699d6" d="M 334.5,136.5 C 340.176,136.334 345.843,136.501 351.5,137C 355.5,139.667 355.5,142.333 351.5,145C 341.783,145.538 332.116,146.538 322.5,148C 318.346,150.153 315.68,153.486 314.5,158C 325.5,158.333 336.5,158.667 347.5,159C 350.167,161.333 350.167,163.667 347.5,166C 336.5,166.333 325.5,166.667 314.5,167C 315.495,170.654 317.495,173.654 320.5,176C 331.108,177.939 341.775,179.439 352.5,180.5C 355.437,183.865 354.77,186.365 350.5,188C 336.495,189.281 323.162,186.947 310.5,181C 302.977,174.07 300.477,165.57 303,155.5C 305.167,147.333 310.333,142.167 318.5,140C 323.9,138.504 329.233,137.337 334.5,136.5 Z"/></g>
<g><path style="opacity:1" fill="#3894b9" d="M 144.5,156.5 C 149.11,159.803 149.277,163.47 145,167.5C 144.13,166.892 143.63,166.059 143.5,165C 143.906,162.122 144.239,159.289 144.5,156.5 Z"/></g>
<g><path style="opacity:0.996" fill="#3595bc" d="M 150.5,152.5 C 151.822,152.33 152.989,152.663 154,153.5C 157.505,159.971 156.839,165.971 152,171.5C 151.167,170.667 150.333,169.833 149.5,169C 153.379,163.965 153.379,158.965 149.5,154C 150.056,153.617 150.389,153.117 150.5,152.5 Z"/></g>
<g><path style="opacity:1" fill="#169ad6" d="M 362.5,136.5 C 380.503,136.333 398.503,136.5 416.5,137C 420.405,139.858 420.405,142.525 416.5,145C 414.645,145.422 412.811,145.922 411,146.5C 405.895,146.09 400.895,146.09 396,146.5C 395.824,160.075 395.324,173.575 394.5,187C 390.975,189.088 387.642,188.921 384.5,186.5C 383.667,173.179 383.167,159.846 383,146.5C 376.097,145.856 368.931,145.356 361.5,145C 359.079,141.952 359.412,139.119 362.5,136.5 Z"/></g>
<g><path style="opacity:0.906" fill="#1f97cf" d="M 121.5,136.5 C 124.368,136.085 126.535,137.085 128,139.5C 128.333,143.833 128.667,148.167 129,152.5C 137.228,147.967 145.062,142.8 152.5,137C 155.771,136.308 157.771,137.641 158.5,141C 157.899,142.605 156.899,143.938 155.5,145C 147.466,150.345 139.466,155.679 131.5,161C 139.812,166.637 148.146,172.303 156.5,178C 160.543,180.028 161.209,182.695 158.5,186C 156.833,186.667 155.167,186.667 153.5,186C 145.559,180.117 137.392,174.617 129,169.5C 128.667,174.5 128.333,179.5 128,184.5C 125,187.167 122,187.167 119,184.5C 118.333,169.5 118.333,154.5 119,139.5C 119.698,138.309 120.531,137.309 121.5,136.5 Z"/></g>
<g><path style="opacity:1" fill="#149ad8" d="M 195.5,136.5 C 199.514,136.334 203.514,136.501 207.5,137C 214.83,151.804 221.497,166.971 227.5,182.5C 227.43,183.772 227.097,184.938 226.5,186C 215.923,186.819 205.423,186.652 195,185.5C 194.105,182.534 194.605,179.867 196.5,177.5C 201.435,176.552 206.435,176.219 211.5,176.5C 209.009,167.185 205.675,158.185 201.5,149.5C 196.069,160.924 190.903,172.591 186,184.5C 182.067,187.099 178.067,187.099 174,184.5C 173.333,183.167 173.333,181.833 174,180.5C 181.076,165.76 188.243,151.093 195.5,136.5 Z"/></g>
</svg>
